<?xml version="1.0" encoding="utf-8"?>
<!-- Generator: Adobe Illustrator 17.1.0, SVG Export Plug-In . SVG Version: 6.00 Build 0)  -->
<!DOCTYPE svg PUBLIC "-//W3C//DTD SVG 1.1//EN" "http://www.w3.org/Graphics/SVG/1.1/DTD/svg11.dtd">
<svg version="1.1" id="Layer_1" xmlns="http://www.w3.org/2000/svg" xmlns:xlink="http://www.w3.org/1999/xlink" x="0px" y="0px"
	 viewBox="0 0 214 129" enable-background="new 0 0 214 129" xml:space="preserve">
<g>
	<polygon fill="#A30000" points="178,36 36,36 36,93 96.969,93 107.001,103.032 117.032,93 178,93 	"/>
	<polygon fill="#CC0000" points="178,36 36,36 36,93 	"/>
	<g>
		<path fill="#FFFFFF" d="M80.382,56.302l-1.646-3.399H77.61v3.399h-2.736v-10.08h4.507c0.585,0,1.121,0.06,1.606,0.18
			c0.485,0.12,0.9,0.309,1.245,0.569c0.346,0.259,0.612,0.598,0.799,1.015c0.187,0.417,0.281,0.924,0.281,1.519
			c0,0.758-0.164,1.378-0.491,1.858c-0.327,0.48-0.77,0.845-1.328,1.095l2.021,3.845H80.382z M80.251,48.799
			c-0.188-0.202-0.504-0.302-0.948-0.302H77.61V50.7h1.65c0.463,0,0.791-0.096,0.984-0.288c0.193-0.192,0.29-0.47,0.29-0.835
			C80.533,49.26,80.439,49.001,80.251,48.799z"/>
		<path fill="#FFFFFF" d="M85.323,56.302v-10.08h7.718v2.347h-4.954v1.353h2.981v2.304h-2.981v1.728h5.054v2.347H85.323z"/>
		<path fill="#FFFFFF" d="M103.513,53.602c-0.23,0.648-0.576,1.172-1.037,1.57c-0.461,0.398-1.03,0.686-1.706,0.864
			c-0.677,0.178-1.462,0.266-2.355,0.266h-3.269v-10.08h3.528c0.787,0,1.502,0.082,2.146,0.245c0.643,0.163,1.188,0.439,1.634,0.828
			c0.446,0.389,0.792,0.9,1.037,1.534c0.245,0.633,0.367,1.425,0.367,2.376C103.858,52.154,103.743,52.954,103.513,53.602z
			 M100.871,50.052c-0.082-0.336-0.214-0.609-0.396-0.821c-0.183-0.211-0.423-0.367-0.72-0.468
			c-0.298-0.101-0.662-0.151-1.094-0.151h-0.691v5.299h0.605c0.432,0,0.802-0.045,1.109-0.137c0.307-0.091,0.559-0.24,0.756-0.446
			c0.197-0.206,0.338-0.48,0.425-0.821c0.086-0.341,0.129-0.761,0.129-1.26C100.993,50.786,100.952,50.388,100.871,50.052z"/>
		<path fill="#FFFFFF" d="M117.006,56.302v-3.974h-3.139v3.974h-2.851v-10.08h2.851v3.672h3.139v-3.672h2.851v10.08H117.006z"/>
		<path fill="#FFFFFF" d="M128.498,56.302l-0.547-1.771h-3.024l-0.547,1.771h-2.995l3.658-10.08h2.822l3.658,10.08H128.498z
			 M127.087,51.65c-0.086-0.326-0.163-0.609-0.23-0.849c-0.067-0.24-0.127-0.456-0.18-0.648c-0.053-0.192-0.098-0.367-0.137-0.526
			c-0.038-0.159-0.072-0.324-0.101-0.497c-0.029,0.173-0.062,0.341-0.101,0.504c-0.038,0.163-0.084,0.341-0.137,0.533
			c-0.053,0.192-0.113,0.408-0.18,0.648c-0.067,0.24-0.144,0.518-0.23,0.835l-0.187,0.662h1.67L127.087,51.65z"/>
		<path fill="#FFFFFF" d="M136.663,48.655v7.646h-2.794v-7.646h-2.823v-2.434h8.438v2.434H136.663z"/>
		<path fill="#FFFFFF" d="M65.934,78.791c-0.413,0.826-0.989,1.498-1.728,2.016c-0.739,0.518-1.618,0.903-2.635,1.152
			c-1.018,0.249-2.131,0.374-3.341,0.374c-1.632,0-3.192-0.236-4.68-0.706c-1.488-0.47-2.76-1.051-3.816-1.742l2.707-4.378
			c0.364,0.25,0.792,0.495,1.282,0.734c0.489,0.241,0.998,0.456,1.526,0.648c0.528,0.192,1.061,0.346,1.598,0.461
			c0.537,0.115,1.037,0.173,1.498,0.173c0.998,0,1.685-0.096,2.059-0.288c0.375-0.192,0.562-0.528,0.562-1.008
			c0-0.192-0.053-0.365-0.158-0.518c-0.106-0.153-0.288-0.302-0.547-0.446c-0.259-0.144-0.61-0.288-1.051-0.432
			c-0.442-0.144-0.999-0.293-1.67-0.447c-1.21-0.288-2.266-0.595-3.168-0.922c-0.903-0.326-1.651-0.734-2.246-1.224
			c-0.595-0.49-1.042-1.08-1.339-1.771c-0.298-0.691-0.446-1.545-0.446-2.563c0-0.941,0.187-1.805,0.562-2.592
			c0.374-0.787,0.907-1.459,1.598-2.016c0.691-0.557,1.527-0.989,2.506-1.296c0.979-0.307,2.074-0.461,3.283-0.461
			c1.728,0,3.23,0.202,4.507,0.605c1.277,0.403,2.453,0.979,3.528,1.728l-2.707,4.378c-0.903-0.614-1.805-1.085-2.707-1.411
			c-0.903-0.326-1.872-0.49-2.909-0.49c-0.845,0-1.402,0.115-1.67,0.346c-0.269,0.231-0.403,0.528-0.403,0.893
			c0,0.192,0.053,0.36,0.158,0.504c0.105,0.144,0.283,0.279,0.533,0.403c0.249,0.125,0.586,0.25,1.008,0.374
			c0.422,0.125,0.96,0.264,1.613,0.418c1.267,0.307,2.362,0.643,3.283,1.008c0.922,0.365,1.68,0.797,2.275,1.296
			c0.595,0.499,1.037,1.094,1.325,1.786c0.288,0.691,0.432,1.507,0.432,2.448C66.553,76.976,66.347,77.965,65.934,78.791z"/>
		<path fill="#FFFFFF" d="M86.183,77.495c-0.451,1.133-1.076,2.059-1.872,2.779c-0.797,0.72-1.738,1.243-2.823,1.569
			c-1.085,0.327-2.261,0.49-3.528,0.49c-1.267,0-2.438-0.163-3.514-0.49c-1.076-0.326-2.002-0.85-2.779-1.569
			c-0.778-0.72-1.387-1.646-1.829-2.779c-0.442-1.133-0.662-2.496-0.662-4.09V61.856h5.702v11.549c0,1.248,0.254,2.228,0.763,2.938
			c0.508,0.71,1.31,1.066,2.405,1.066c1.094,0,1.886-0.355,2.376-1.066c0.49-0.71,0.734-1.689,0.734-2.938V61.856h5.702v11.549
			C86.86,74.999,86.634,76.362,86.183,77.495z"/>
		<path fill="#FFFFFF" d="M105.425,82.016v-4.81c0-0.998,0.009-1.944,0.029-2.837c0.019-0.893,0.048-1.733,0.086-2.52
			c-0.154,0.384-0.327,0.806-0.518,1.267c-0.192,0.461-0.394,0.927-0.605,1.397c-0.212,0.471-0.423,0.932-0.634,1.382
			c-0.212,0.451-0.403,0.86-0.576,1.224l-2.65,5.587l-2.65-5.587c-0.173-0.365-0.365-0.773-0.576-1.224
			c-0.212-0.451-0.422-0.912-0.634-1.382c-0.212-0.47-0.413-0.936-0.605-1.397c-0.192-0.461-0.365-0.883-0.518-1.267
			c0.038,0.787,0.067,1.627,0.086,2.52c0.019,0.893,0.029,1.839,0.029,2.837v4.81h-5.242v-20.16h5.127l2.477,5.386
			c0.307,0.653,0.595,1.281,0.864,1.886c0.269,0.605,0.513,1.172,0.734,1.699c0.221,0.528,0.413,1.004,0.576,1.426
			c0.163,0.422,0.283,0.778,0.36,1.066c0.173-0.576,0.48-1.387,0.922-2.434c0.441-1.046,0.979-2.261,1.613-3.643l2.477-5.386h5.069
			v20.16H105.425z"/>
		<path fill="#FFFFFF" d="M129.36,82.016v-4.81c0-0.998,0.009-1.944,0.029-2.837c0.019-0.893,0.048-1.733,0.086-2.52
			c-0.154,0.384-0.327,0.806-0.518,1.267c-0.192,0.461-0.394,0.927-0.605,1.397c-0.212,0.471-0.422,0.932-0.634,1.382
			c-0.212,0.451-0.403,0.86-0.576,1.224l-2.65,5.587l-2.65-5.587c-0.173-0.365-0.365-0.773-0.576-1.224
			c-0.212-0.451-0.423-0.912-0.634-1.382c-0.212-0.47-0.413-0.936-0.605-1.397c-0.192-0.461-0.365-0.883-0.518-1.267
			c0.038,0.787,0.067,1.627,0.086,2.52c0.019,0.893,0.029,1.839,0.029,2.837v4.81h-5.242v-20.16h5.127l2.477,5.386
			c0.307,0.653,0.595,1.281,0.864,1.886c0.269,0.605,0.513,1.172,0.734,1.699c0.221,0.528,0.413,1.004,0.576,1.426
			c0.163,0.422,0.283,0.778,0.36,1.066c0.173-0.576,0.48-1.387,0.922-2.434c0.441-1.046,0.979-2.261,1.613-3.643l2.477-5.386h5.069
			v20.16H129.36z"/>
		<path fill="#FFFFFF" d="M138.375,82.016v-20.16h5.703v20.16H138.375z"/>
		<path fill="#FFFFFF" d="M158.621,66.723v15.293h-5.587V66.723h-5.645v-4.867h16.877v4.867H158.621z"/>
	</g>
</g>
</svg>
